<svg width="29" height="28" viewBox="0 0 29 28" fill="none" xmlns="http://www.w3.org/2000/svg">
<g filter="url(#filter0_d_14_25)">
<circle cx="13.7993" cy="12.9542" r="10.5838" fill="white"/>
</g>
<path fill-rule="evenodd" clip-rule="evenodd" d="M17.8013 16.0088C17.543 16.2057 17.1741 16.156 16.9772 15.8977L14.0433 12.0496C13.9702 12.0013 13.8636 12.0013 13.7905 12.0496L10.8566 15.8977C10.6597 16.156 10.2908 16.2057 10.0325 16.0088C9.77428 15.8119 9.72455 15.443 9.92143 15.1847L12.8655 11.3233C12.8998 11.2783 12.9518 11.2159 13.0238 11.1562C13.5369 10.7311 14.2968 10.7311 14.8099 11.1562C14.8819 11.2159 14.9339 11.2783 14.9683 11.3233L17.9123 15.1847C18.1092 15.443 18.0595 15.8119 17.8013 16.0088Z" fill="#3C4242"/>
<defs>
<filter id="filter0_d_14_25" x="0.94755" y="0.102402" width="27.2155" height="27.2155" filterUnits="userSpaceOnUse" color-interpolation-filters="sRGB">
<feFlood flood-opacity="0" result="BackgroundImageFix"/>
<feColorMatrix in="SourceAlpha" type="matrix" values="0 0 0 0 0 0 0 0 0 0 0 0 0 0 0 0 0 0 127 0" result="hardAlpha"/>
<feOffset dx="0.755986" dy="0.755986"/>
<feGaussianBlur stdDeviation="1.51197"/>
<feComposite in2="hardAlpha" operator="out"/>
<feColorMatrix type="matrix" values="0 0 0 0 0 0 0 0 0 0 0 0 0 0 0 0 0 0 0.04 0"/>
<feBlend mode="normal" in2="BackgroundImageFix" result="effect1_dropShadow_14_25"/>
<feBlend mode="normal" in="SourceGraphic" in2="effect1_dropShadow_14_25" result="shape"/>
</filter>
</defs>
</svg>
