<svg width="29" height="28" viewBox="0 0 29 28" fill="none" xmlns="http://www.w3.org/2000/svg">
<g filter="url(#filter0_d_14_26)">
<circle cx="13.7993" cy="13.2893" r="10.5838" transform="rotate(180 13.7993 13.2893)" fill="#3C4242"/>
</g>
<path fill-rule="evenodd" clip-rule="evenodd" d="M9.79733 11.293C10.0556 11.0961 10.4245 11.1459 10.6214 11.4041L13.5553 15.2522C13.6284 15.3006 13.735 15.3006 13.8081 15.2522L16.742 11.4041C16.9389 11.1459 17.3078 11.0961 17.5661 11.293C17.8243 11.4899 17.874 11.8589 17.6772 12.1171L14.7331 15.9785C14.6988 16.0235 14.6468 16.0859 14.5747 16.1456C14.0616 16.5707 13.3018 16.5707 12.7887 16.1456C12.7167 16.0859 12.6647 16.0235 12.6303 15.9785L9.68625 12.1171C9.48936 11.8589 9.53909 11.4899 9.79733 11.293Z" fill="white"/>
<defs>
<filter id="filter0_d_14_26" x="0.947535" y="0.437516" width="27.2155" height="27.2155" filterUnits="userSpaceOnUse" color-interpolation-filters="sRGB">
<feFlood flood-opacity="0" result="BackgroundImageFix"/>
<feColorMatrix in="SourceAlpha" type="matrix" values="0 0 0 0 0 0 0 0 0 0 0 0 0 0 0 0 0 0 127 0" result="hardAlpha"/>
<feOffset dx="0.755986" dy="0.755986"/>
<feGaussianBlur stdDeviation="1.51197"/>
<feComposite in2="hardAlpha" operator="out"/>
<feColorMatrix type="matrix" values="0 0 0 0 0 0 0 0 0 0 0 0 0 0 0 0 0 0 0.04 0"/>
<feBlend mode="normal" in2="BackgroundImageFix" result="effect1_dropShadow_14_26"/>
<feBlend mode="normal" in="SourceGraphic" in2="effect1_dropShadow_14_26" result="shape"/>
</filter>
</defs>
</svg>
